<svg width="1200" height="630" xmlns="http://www.w3.org/2000/svg" viewBox="0 0 1200 630" role="img" aria-label="Aliomis: the best call tracking platform for 2026, premium platform picks">
  <defs>
    <linearGradient id="og-g" x1="0" y1="0" x2="1" y2="1">
      <stop offset="0" stop-color="#6366F1"/>
      <stop offset="1" stop-color="#8B5CF6"/>
    </linearGradient>
    <linearGradient id="og-bg" x1="0" y1="0" x2="0" y2="1">
      <stop offset="0" stop-color="#FFFFFF"/>
      <stop offset="1" stop-color="#F5F3FF"/>
    </linearGradient>
  </defs>
  <rect width="1200" height="630" fill="url(#og-bg)"/>

  <g transform="translate(80 80)">
    <rect width="56" height="56" rx="14" fill="url(#og-g)"/>
    <g transform="translate(16 16)" fill="#FFFFFF">
      <path d="M6.62 10.79c1.44 2.83 3.76 5.14 6.59 6.59l2.2-2.2c.28-.28.67-.36 1.02-.25 1.12.37 2.33.57 3.57.57.55 0 1 .45 1 1V20c0 .55-.45 1-1 1-9.39 0-17-7.61-17-17 0-.55.45-1 1-1h3.5c.55 0 1 .45 1 1 0 1.25.2 2.45.57 3.57.11.35.03.74-.25 1.02l-2.2 2.2z"/>
    </g>
    <text x="76" y="24" font-family="Inter, sans-serif" font-weight="700" font-size="22" fill="#0A0A0F" letter-spacing="-0.5">Aliomis</text>
    <text x="76" y="46" font-family="Inter, sans-serif" font-weight="600" font-size="11" fill="#6B6B78" letter-spacing="3">PREMIUM PLATFORM PICKS</text>
  </g>

  <text x="80" y="280" font-family="Inter, sans-serif" font-weight="800" font-size="76" fill="#0A0A0F" letter-spacing="-3">The best call</text>
  <text x="80" y="364" font-family="Inter, sans-serif" font-weight="800" font-size="76" letter-spacing="-3">
    <tspan fill="url(#og-g)">tracking platform</tspan>
  </text>
  <text x="80" y="430" font-family="Inter, sans-serif" font-weight="500" font-size="24" fill="#6B6B78" letter-spacing="-0.5">A short, opinionated take. Five platforms, one pick.</text>

  <g transform="translate(80 510)">
    <rect width="240" height="62" rx="12" fill="url(#og-g)"/>
    <text x="120" y="40" text-anchor="middle" font-family="Inter, sans-serif" font-weight="600" font-size="17" fill="#FFFFFF">View the #1 pick</text>
  </g>

  <g transform="translate(880 470)">
    <rect width="240" height="100" rx="14" fill="#FFFFFF" stroke="#E7E7EC"/>
    <text x="120" y="36" text-anchor="middle" font-family="Inter, sans-serif" font-weight="600" font-size="11" fill="#6B6B78" letter-spacing="2">THE PICK</text>
    <text x="120" y="74" text-anchor="middle" font-family="Inter, sans-serif" font-weight="800" font-size="32" fill="#6366F1" letter-spacing="-1">CallScaler</text>
  </g>

  <text x="80" y="600" font-family="Inter, sans-serif" font-weight="600" font-size="13" fill="#6B6B78" letter-spacing="3">ALIOMIS.COM · 2026</text>
</svg>
